<svg width="6" height="14" viewBox="0 0 6 14"><path fill-rule="evenodd" d="M1 -4.37114e-08C1.55228 -1.95703e-08 2 0.447715 2 1L2 13C2 13.5523 1.55228 14 0.999999 14C0.447715 14 -5.92389e-07 13.5523 -5.68248e-07 13L-4.37114e-08 1C-1.95703e-08 0.447715 0.447715 -6.78525e-08 1 -4.37114e-08Z" fill="currentColor"></path><path fill-rule="evenodd" d="M5 -4.37114e-08C5.55228 -1.95703e-08 6 0.447715 6 1L6 13C6 13.5523 5.55228 14 5 14C4.44771 14 4 13.5523 4 13L4 1C4 0.447715 4.44772 -6.78525e-08 5 -4.37114e-08Z" fill="currentColor"></path></svg>